Coordinates
version=1
nRows=34
nColumns=38
inDegrees=no

Units are S.I. units (second, meters, Newtons, ...)
If the header above contains a line with 'inDegrees', this indicates whether rotational values are in degrees (yes) or radians (no).

endheader
time	pelvis_tilt	pelvis_list	pelvis_rotation	pelvis_tx	pelvis_ty	pelvis_tz	hip_flexion_r	hip_adduction_r	hip_rotation_r	knee_angle_r	ankle_angle_r	subtalar_angle_r	mtp_angle_r	hip_flexion_l	hip_adduction_l	hip_rotation_l	knee_angle_l	ankle_angle_l	subtalar_angle_l	mtp_angle_l	lumbar_extension	lumbar_bending	lumbar_rotation	arm_flex_r	arm_add_r	arm_rot_r	elbow_flex_r	pro_sup_r	wrist_flex_r	wrist_dev_r	arm_flex_l	arm_add_l	arm_rot_l	elbow_flex_l	pro_sup_l	wrist_flex_l	wrist_dev_l
1.44	0.221755	1.24448	-1.70969	0.823404	-0.126899	1.08645	-0.232989	-0.152354	-0.0296327	1.06332	-0.604821	0	0	-0.0641215	-0.041795	-0.319274	0.445077	-0.226882	0	0	-0.416473	-0.00139955	-0.06077	0.494831	-0.521817	0.516697	1.16211	0.677228	0	0	0.278794	-0.442702	0.12171	1.21892	0.852893	0	0
1.45	0.213926	1.24209	-1.70098	0.827253	-0.136775	1.08864	-0.210351	-0.146021	-0.01755	1.09616	-0.594963	0	0	-0.0769682	-0.0420868	-0.322394	0.448419	-0.224467	0	0	-0.423584	0.00379553	-0.0630481	0.500872	-0.5231	0.520487	1.16109	0.674927	0	0	0.282364	-0.443054	0.123144	1.21802	0.851297	0	0
1.46	0.20467	1.23964	-1.6911	0.83095	-0.146551	1.09092	-0.188289	-0.137998	-0.00649553	1.12568	-0.573205	0	0	-0.0910816	-0.0430184	-0.324702	0.448617	-0.223394	0	0	-0.43094	0.00945798	-0.0650595	0.506254	-0.523945	0.523232	1.16077	0.676029	0	0	0.285988	-0.443637	0.124532	1.21728	0.850079	0	0
1.47	0.194661	1.23717	-1.68061	0.834547	-0.156203	1.09324	-0.166908	-0.128882	0.00457989	1.15396	-0.517201	0	0	-0.105597	-0.0443712	-0.327275	0.446929	-0.223214	0	0	-0.437607	0.0157569	-0.0689504	0.519981	-0.52849	0.542946	1.15814	0.652567	0	0	0.287505	-0.444578	0.123201	1.21688	0.846864	0	0
1.48	0.183877	1.23455	-1.66884	0.838177	-0.165766	1.09573	-0.146294	-0.119716	0.0127665	1.17606	-0.483968	0	0	-0.120801	-0.0459547	-0.329351	0.443495	-0.224308	0	0	-0.445213	0.0226233	-0.0716504	0.527435	-0.530165	0.549272	1.15769	0.64854	0	0	0.290893	-0.444655	0.123269	1.21568	0.844231	0	0
1.49	0.172958	1.23264	-1.65737	0.841579	-0.175393	1.09823	-0.124997	-0.109701	0.0212111	1.19365	-0.455059	0	0	-0.136047	-0.0479367	-0.332475	0.439526	-0.225194	0	0	-0.451777	0.0291919	-0.0733209	0.533843	-0.531641	0.554233	1.15697	0.646223	0	0	0.294594	-0.444353	0.123674	1.21365	0.841759	0	0
1.5	0.163367	1.23174	-1.64737	0.844761	-0.185105	1.10065	-0.102835	-0.0995982	0.0291509	1.20619	-0.429898	0	0	-0.151029	-0.0496444	-0.335873	0.43501	-0.225677	0	0	-0.456766	0.0348111	-0.0743743	0.538256	-0.532374	0.557239	1.15621	0.644194	0	0	0.29859	-0.44395	0.124586	1.2108	0.840272	0	0
1.51	0.155157	1.23195	-1.63853	0.84773	-0.194868	1.10295	-0.0801654	-0.0894565	0.0361685	1.21507	-0.402271	0	0	-0.165453	-0.050672	-0.33858	0.429157	-0.225878	0	0	-0.460212	0.0394898	-0.0751966	0.540901	-0.532065	0.558276	1.15495	0.642875	0	0	0.302872	-0.443593	0.125926	1.20747	0.839623	0	0
1.52	0.14802	1.23318	-1.63005	0.850552	-0.204644	1.10513	-0.0574981	-0.0789842	0.0417794	1.22051	-0.370082	0	0	-0.178846	-0.0513857	-0.340941	0.422533	-0.226321	0	0	-0.462384	0.0435569	-0.0763379	0.54239	-0.530738	0.557365	1.15324	0.644403	0	0	0.307371	-0.443073	0.127062	1.2038	0.838675	0	0
1.53	0.141622	1.23542	-1.62147	0.853295	-0.214392	1.10717	-0.0351945	-0.0685891	0.0457751	1.22129	-0.341316	0	0	-0.190924	-0.0521935	-0.343426	0.415594	-0.227302	0	0	-0.463496	0.0473064	-0.0778716	0.542544	-0.528633	0.553957	1.15157	0.648755	0	0	0.312164	-0.442391	0.128081	1.19993	0.837718	0	0
1.54	0.13469	1.23817	-1.61194	0.855885	-0.224135	1.10904	-0.0135062	-0.0580418	0.0480274	1.21672	-0.324043	0	0	-0.201805	-0.0540228	-0.34785	0.410076	-0.228325	0	0	-0.463946	0.0510058	-0.0797641	0.543699	-0.527499	0.553469	1.15009	0.645153	0	0	0.316492	-0.442811	0.130221	1.19684	0.837583	0	0
1.55	0.127259	1.24321	-1.60243	0.858219	-0.233989	1.11052	0.00999855	-0.0468387	0.050906	1.20907	-0.294658	0	0	-0.210511	-0.0559922	-0.351622	0.403144	-0.229524	0	0	-0.461496	0.0542725	-0.0806405	0.543635	-0.525663	0.551613	1.1478	0.642118	0	0	0.320918	-0.443264	0.13341	1.19295	0.838237	0	0
1.56	0.120968	1.24754	-1.59333	0.860725	-0.243678	1.1119	0.0318453	-0.0374483	0.0509504	1.19652	-0.2771	0	0	-0.219008	-0.0575452	-0.355064	0.397636	-0.230604	0	0	-0.460159	0.0575619	-0.0821522	0.544241	-0.524694	0.550276	1.14638	0.641854	0	0	0.325917	-0.443434	0.135986	1.18935	0.840444	0	0
1.57	0.114958	1.25242	-1.58419	0.863359	-0.253309	1.11305	0.0533995	-0.0291578	0.0497898	1.18021	-0.260499	0	0	-0.226491	-0.058501	-0.356275	0.391796	-0.231606	0	0	-0.457979	0.0611128	-0.0839581	0.544533	-0.523857	0.547995	1.14507	0.642306	0	0	0.330933	-0.443196	0.138492	1.1853	0.844347	0	0
1.58	0.108612	1.25794	-1.57459	0.866017	-0.262967	1.11393	0.0745489	-0.0215862	0.0480289	1.16065	-0.2416	0	0	-0.233055	-0.0592039	-0.355152	0.385837	-0.232131	0	0	-0.454687	0.0648864	-0.0855239	0.544078	-0.52294	0.544261	1.14366	0.643559	0	0	0.334826	-0.441644	0.140227	1.18248	0.844669	0	0
1.59	0.101696	1.26282	-1.56434	0.868642	-0.272585	1.11458	0.0940034	-0.0146789	0.0453429	1.13829	-0.225792	0	0	-0.239239	-0.0602768	-0.354157	0.381958	-0.231785	0	0	-0.451987	0.0688401	-0.0872011	0.544174	-0.522145	0.541014	1.14239	0.645342	0	0	0.338585	-0.440552	0.142142	1.18045	0.843165	0	0
1.6	0.0946666	1.26797	-1.55378	0.871237	-0.282216	1.11491	0.112521	-0.00850344	0.0425932	1.11312	-0.203254	0	0	-0.244291	-0.0614271	-0.352055	0.379482	-0.228926	0	0	-0.448907	0.0726737	-0.0885227	0.540552	-0.518908	0.529359	1.14179	0.661385	0	0	0.342787	-0.439407	0.144622	1.17851	0.841334	0	0
1.61	0.0874799	1.27207	-1.54357	0.873823	-0.291883	1.11507	0.128927	-0.00331747	0.0396116	1.08513	-0.194297	0	0	-0.249887	-0.0626583	-0.35128	0.378441	-0.227663	0	0	-0.446479	0.0766627	-0.0903355	0.542242	-0.51975	0.529474	1.14137	0.660503	0	0	0.34557	-0.43805	0.144865	1.17739	0.841495	0	0
1.62	0.0803732	1.27629	-1.53411	0.876233	-0.301657	1.11491	0.144154	0.00159385	0.0376991	1.05506	-0.181782	0	0	-0.254934	-0.0637657	-0.350208	0.378422	-0.22496	0	0	-0.443464	0.0801663	-0.0915956	0.543636	-0.520328	0.528954	1.1409	0.660672	0	0	0.347539	-0.437083	0.145409	1.1771	0.842204	0	0
1.63	0.0742467	1.28045	-1.52563	0.878527	-0.311423	1.11445	0.158125	0.00577768	0.0362464	1.02303	-0.16766	0	0	-0.259133	-0.0647618	-0.348876	0.380447	-0.22073	0	0	-0.440411	0.0831704	-0.0929753	0.545045	-0.520736	0.528086	1.14062	0.661698	0	0	0.349227	-0.436332	0.145497	1.17757	0.842977	0	0
1.64	0.0726839	1.28195	-1.51913	0.881109	-0.320838	1.11406	0.167512	0.00714652	0.0320426	0.988121	-0.146668	0	0	-0.265156	-0.0644507	-0.342139	0.383181	-0.210747	0	0	-0.440593	0.0860038	-0.0979873	0.548518	-0.520288	0.528365	1.14027	0.664874	0	0	0.350808	-0.437521	0.14558	1.17982	0.843473	0	0
1.65	0.0767616	1.28047	-1.51507	0.884198	-0.329728	1.11387	0.172156	0.00469841	0.0233464	0.94968	-0.137116	0	0	-0.2731	-0.0624789	-0.329477	0.38593	-0.206301	0	0	-0.445352	0.0890365	-0.105772	0.553641	-0.520913	0.528903	1.14144	0.665089	0	0	0.354399	-0.43912	0.146163	1.18282	0.843178	0	0
1.66	0.0780508	1.28096	-1.5126	0.886526	-0.339165	1.11324	0.17812	0.00463348	0.0207759	0.910198	-0.129496	0	0	-0.279823	-0.0616559	-0.323708	0.389639	-0.203635	0	0	-0.447019	0.0906002	-0.10923	0.55706	-0.521283	0.528141	1.14242	0.662225	0	0	0.356634	-0.439877	0.146165	1.1853	0.843351	0	0
1.67	0.0775265	1.28288	-1.51162	0.888234	-0.349077	1.11222	0.184209	0.00640256	0.0233716	0.868939	-0.11785	0	0	-0.285831	-0.0617561	-0.322967	0.394418	-0.196521	0	0	-0.446244	0.0908572	-0.109646	0.558158	-0.520483	0.524811	1.14291	0.668052	0	0	0.357577	-0.440185	0.145542	1.18757	0.843113	0	0
1.68	0.0783968	1.28512	-1.51278	0.889745	-0.359133	1.11099	0.189462	0.00774861	0.0275842	0.82613	-0.108378	0	0	-0.291608	-0.0617358	-0.323277	0.399574	-0.19188	0	0	-0.444773	0.0902544	-0.109588	0.560246	-0.521282	0.525632	1.1439	0.667263	0	0	0.358037	-0.440531	0.144805	1.18971	0.842931	0	0
1.69	0.0818707	1.28729	-1.51631	0.891203	-0.369234	1.10965	0.193478	0.00792568	0.031526	0.782056	-0.0991972	0	0	-0.297477	-0.061071	-0.322454	0.404759	-0.18675	0	0	-0.443375	0.0888275	-0.109867	0.561719	-0.521894	0.525598	1.14543	0.667708	0	0	0.358419	-0.441003	0.144078	1.19189	0.843206	0	0
1.7	0.0864396	1.28992	-1.52161	0.89255	-0.379522	1.10813	0.19668	0.00756539	0.0356128	0.735756	-0.09014	0	0	-0.303271	-0.0600202	-0.322203	0.409753	-0.18108	0	0	-0.441119	0.0868468	-0.109555	0.562539	-0.522494	0.524854	1.14717	0.668808	0	0	0.358381	-0.441	0.142955	1.19367	0.843671	0	0
1.71	0.0919249	1.29325	-1.52858	0.893763	-0.39003	1.10645	0.199838	0.00670685	0.039527	0.68835	-0.0818023	0	0	-0.308613	-0.0585775	-0.32281	0.414564	-0.175547	0	0	-0.437709	0.0842714	-0.108547	0.562438	-0.523186	0.523783	1.14909	0.670857	0	0	0.357827	-0.440523	0.141465	1.19514	0.844475	0	0
1.72	0.098338	1.29698	-1.53661	0.89487	-0.400701	1.10466	0.202581	0.00533667	0.0420605	0.639823	-0.0743993	0	0	-0.313396	-0.0570081	-0.323715	0.419612	-0.170476	0	0	-0.433555	0.0812837	-0.107409	0.561289	-0.523465	0.52183	1.1511	0.672248	0	0	0.356883	-0.43978	0.13962	1.19639	0.845701	0	0
1.73	0.105147	1.3007	-1.54462	0.895927	-0.411475	1.10284	0.203861	0.00381729	0.0425789	0.589097	-0.0683211	0	0	-0.31785	-0.0556003	-0.324536	0.424822	-0.166293	0	0	-0.429324	0.0782989	-0.106328	0.560075	-0.523965	0.519879	1.15314	0.67381	0	0	0.356004	-0.438804	0.137776	1.19733	0.847025	0	0
1.74	0.110627	1.30345	-1.55069	0.896985	-0.422326	1.1011	0.201981	0.00266695	0.04061	0.534258	-0.0678059	0	0	-0.323051	-0.054992	-0.325532	0.430178	-0.16192	0	0	-0.426299	0.0758975	-0.104626	0.555491	-0.522652	0.510281	1.15571	0.690383	0	0	0.356187	-0.43727	0.136762	1.19782	0.848878	0	0
1.75	0.116293	1.30624	-1.5565	0.898008	-0.433316	1.0993	0.19965	0.00124857	0.036161	0.479454	-0.0651695	0	0	-0.328127	-0.0546057	-0.325525	0.435574	-0.159858	0	0	-0.42245	0.0735586	-0.104146	0.554678	-0.524223	0.510898	1.15768	0.688321	0	0	0.355298	-0.436356	0.135351	1.19837	0.848823	0	0
1.76	0.119913	1.3067	-1.55917	0.89912	-0.444383	1.09772	0.191464	0.00035147	0.0286857	0.417917	-0.0725418	0	0	-0.336107	-0.0552164	-0.324351	0.440018	-0.157943	0	0	-0.421401	0.0723981	-0.104001	0.553663	-0.526417	0.510368	1.16116	0.686404	0	0	0.354993	-0.435492	0.134265	1.19944	0.849433	0	0
1.77	0.122816	1.30628	-1.56035	0.900254	-0.455627	1.09618	0.180458	-0.000118816	0.019678	0.355243	-0.0772386	0	0	-0.345099	-0.0563663	-0.322801	0.444335	-0.157173	0	0	-0.42083	0.071654	-0.104772	0.552414	-0.527753	0.509304	1.16416	0.685721	0	0	0.354093	-0.434937	0.132937	1.20084	0.85016	0	0
